# xmcd
#
# Track frame offsets: 
#        182
#        13235
#        24297
#        36325
#        45150
#        58050
#        70452
#        83725
#        93225
#        106775
#        119747
#        130250
#        143540
#        156407
#
# Disc length: 2253 seconds
#
# Revision: 3
# Processed by: cddbd v1.5.2PL0 Copyright (c) Steve Scherf et al.
# Submitted via: ExactAudioCopy v0.99pb5
#
DISCID=b708cb0e
DTITLE=Various Artist - Country Number Ones - Vol. 1
DYEAR=1990
DGENRE=Country
TTITLE0=Jim Reeves - Distant drums
TTITLE1=Hank Snow - Let me go, lover
TTITLE2=Eddy Arnold - I'm throwing rice (at the girl I love)
TTITLE3=Johnnie And Jack - (Oh baby mine) I get so lonely
TTITLE4=Hank Snow and Rainbow Ranch Boys - I'm movin' on
TTITLE5=Jim Reeves - Blue side of lonesome
TTITLE6=Hank Locklin - Please help me, I'm falling
TTITLE7=Jim Reeves - Billy Bayou
TTITLE8=Pee Wee King - Slow poke
TTITLE9=Eddy Arnold - Just a little lovin' (will go a long, long way)
TTITLE10=Connie Smith - Once a day
TTITLE11=Hank Snow - I don't hurt anymore
TTITLE12=Browns - The three bells
TTITLE13=Porter Wagoner - A satisfied mind
EXTD=YEAR: 1990
EXTT0=
EXTT1=
EXTT2=
EXTT3=
EXTT4=
EXTT5=
EXTT6=
EXTT7=
EXTT8=
EXTT9=
EXTT10=
EXTT11=
EXTT12=
EXTT13=
PLAYORDER=
